<svg width="40" height="40" viewBox="0 0 40 40" fill="none" xmlns="http://www.w3.org/2000/svg">
<path d="M20.0007 33.3333C12.6507 33.3333 6.66732 27.3499 6.66732 19.9999C6.66732 12.6499 12.6507 6.66659 20.0007 6.66659C27.3507 6.66659 33.334 12.6499 33.334 19.9999C33.334 27.3499 27.3507 33.3333 20.0007 33.3333ZM20.0007 3.33325C17.812 3.33325 15.6447 3.76435 13.6226 4.60193C11.6005 5.4395 9.76318 6.66716 8.21554 8.21481C5.08993 11.3404 3.33398 15.5796 3.33398 19.9999C3.33398 24.4202 5.08993 28.6594 8.21554 31.785C9.76318 33.3327 11.6005 34.5603 13.6226 35.3979C15.6447 36.2355 17.812 36.6666 20.0007 36.6666C24.4209 36.6666 28.6602 34.9106 31.7858 31.785C34.9114 28.6594 36.6673 24.4202 36.6673 19.9999C36.6673 17.8112 36.2362 15.644 35.3986 13.6219C34.5611 11.5998 33.3334 9.76245 31.7858 8.21481C30.2381 6.66716 28.4008 5.4395 26.3787 4.60193C24.3566 3.76435 22.1894 3.33325 20.0007 3.33325ZM21.6673 11.6666H18.334V18.3333H11.6673V21.6666H18.334V28.3333H21.6673V21.6666H28.334V18.3333H21.6673V11.6666Z" fill="#D2F7FF"/>
</svg>
