<svg width="158" height="64" viewBox="0 0 158 64" fill="none" xmlns="http://www.w3.org/2000/svg">
<rect width="158" height="64" rx="32" fill="#2E7EDB"/>
<path d="M54.9201 32.152C54.9201 22.216 46.8561 14.2 36.9681 14.2C27.0321 14.2 19.0161 22.216 19.0161 32.152C19.0161 42.04 27.0321 50.104 36.9681 50.104C46.8561 50.104 54.9201 42.04 54.9201 32.152ZM24.0561 32.152C24.0561 28.696 25.4001 25.432 27.8481 23.032C30.2961 20.584 33.5121 19.24 36.9681 19.24C40.4241 19.24 43.6401 20.584 46.0881 23.032C48.5361 25.432 49.8321 28.696 49.8321 32.152C49.8321 35.56 48.5361 38.824 46.0881 41.224C43.6401 43.672 40.4241 45.016 36.9681 45.016C33.5121 45.016 30.2961 43.672 27.8481 41.224C25.4001 38.824 24.0561 35.56 24.0561 32.152ZM59.4239 44.296V15.4H54.3839V49H70.8479V44.296H59.4239ZM100.502 39.256L95.0781 38.824C94.5501 39.688 93.8781 40.504 93.1581 41.272C90.7101 43.72 87.4941 45.064 84.0381 45.064C80.5821 45.064 77.3661 43.72 74.9181 41.272C72.9021 39.256 71.6061 36.664 71.2701 33.832H101.894C101.942 33.304 101.99 32.728 101.99 32.152C101.99 22.216 93.9741 14.2 84.0381 14.2C74.1021 14.2 66.0861 22.216 66.0861 32.152C66.0861 42.088 74.1021 50.104 84.0381 50.104C91.4301 50.104 97.7661 45.64 100.502 39.256ZM84.0381 19.24C87.4941 19.24 90.7101 20.584 93.1581 23.032C94.7901 24.664 95.9421 26.728 96.5181 28.888H71.5581C72.1341 26.728 73.2861 24.664 74.9181 23.032C77.3661 20.584 80.5821 19.24 84.0381 19.24ZM131.886 34.696H137.646V29.752H121.182V34.696H126.942V44.056H106.35V20.344H126.942V15.4H101.454V49H131.886V34.696Z" fill="white"/>
</svg>
